<svg xmlns="http://www.w3.org/2000/svg" viewBox="0 0 432 432"><g id="Layer_2" data-name="Layer 2"><path d="M216 432c-2.15 0-4.29 0-6.42-.1l44.14-121.32h60.75c10.67 0 22.37-8.2 26-18.21l47.89-131.55c7.83-21.53-4.5-39.15-27.42-39.15h-84.26L206 316l-40.15 110.14C70.74 403.52 0 318 0 216 0 116.92 66.72 33.42 157.68 8l-41.36 113.7-68.78 188.88h45.78l58.48-160.52h34.4l-58.48 160.53h45.76L228 160.82c7.84-21.53-4.5-39.15-27.39-39.15h-38.5L206.29.23Q211.12 0 216 0c119.29 0 216 96.71 216 216s-96.71 216-216 216zm130.69-282.06H312.3L264.13 282.1h34.4z" id="Layer_1-2" data-name="Layer 1"/></g></svg>