<?xml version="1.0" encoding="UTF-8"?>
<svg width="124px" height="50px" viewBox="0 0 124 50" version="1.1" xmlns="http://www.w3.org/2000/svg" xmlns:xlink="http://www.w3.org/1999/xlink">
    <!-- Generator: Sketch 63.1 (92452) - https://sketch.com -->
    <title>HP Desktop Chat Tab 3</title>
    <desc>Created with Sketch.</desc>
    <g id="Assets-for-Export" stroke="none" stroke-width="1" fill="none" fill-rule="evenodd">
        <g transform="translate(-568.000000, -299.000000)" fill-rule="nonzero" id="HP-Desktop-Chat-Tab-3">
            <g transform="translate(568.000000, 299.000000)">
                <g id="HP-Desktop-Chat-Tab-(Hidden)">
                    <rect id="Rectangle" fill="#008FCE" x="0" y="0" width="50" height="50"></rect>
                    <path d="M25,37 C27.5295657,37 29.8763257,36.217316 31.8113173,34.8809108 L37,37 L35.0652887,31.5363347 C36.2890192,29.6557691 37,27.4109138 37,25 C37,18.372583 31.627417,13 25,13 C18.372583,13 13,18.372583 13,25 C13,31.627417 18.372583,37 25,37 Z" id="Oval" fill="#FFFFFF"></path>
                    <circle id="Oval" fill="#008FCE" cx="19" cy="25.5" r="1.5"></circle>
                    <circle id="Oval-Copy" fill="#008FCE" cx="25" cy="25.5" r="1.5"></circle>
                    <circle id="Oval-Copy-2" fill="#008FCE" cx="31" cy="25.5" r="1.5"></circle>
                </g>
                <polygon id="Rectangle" fill="#008FCE" points="49 0 124 0 124 50 49 50"></polygon>
                <path d="M57.12,31 L57.12,29.96 C57.12,29.704 56.992,29.592 56.736,29.592 L56.736,29.592 L52.8,29.592 L52.8,20.28 C52.8,20.152 52.768,20.072 52.688,20.008 C52.624,19.944 52.544,19.912 52.416,19.912 L52.416,19.912 L51.12,19.912 L51.12,30.632 C51.12,30.872 51.248,31 51.504,31 L51.504,31 L57.12,31 Z M59.392,21.576 C59.744,21.576 59.984,21.496 60.144,21.368 C60.304,21.224 60.384,21.016 60.384,20.696 C60.384,20.376 60.304,20.152 60.144,20.024 C59.984,19.88 59.744,19.816 59.392,19.816 C59.04,19.816 58.784,19.88 58.624,20.024 C58.464,20.152 58.4,20.376 58.4,20.696 C58.4,21.016 58.48,21.24 58.64,21.384 C58.8,21.512 59.04,21.576 59.392,21.576 Z M60.176,31 L60.176,23.224 C60.176,22.968 60.048,22.856 59.792,22.856 L59.792,22.856 L58.56,22.856 L58.56,30.632 C58.56,30.872 58.688,31 58.944,31 L58.944,31 L60.176,31 Z M65.84,31 C66.4,29.848 66.88,28.68 67.28,27.528 C67.696,26.36 67.984,25.224 68.192,24.088 C68.224,23.896 68.256,23.736 68.272,23.592 C68.304,23.432 68.32,23.32 68.32,23.208 C68.32,22.968 68.208,22.856 67.984,22.856 L67.984,22.856 L66.768,22.856 C66.704,23.368 66.624,23.928 66.496,24.536 C66.384,25.128 66.24,25.72 66.08,26.328 C65.92,26.936 65.776,27.496 65.584,28.072 C65.408,28.632 65.216,29.144 65.008,29.608 C64.816,29.16 64.64,28.664 64.448,28.136 C64.272,27.592 64.112,27.048 63.952,26.488 C63.808,25.912 63.696,25.368 63.568,24.824 C63.456,24.264 63.36,23.736 63.296,23.224 C63.264,22.968 63.136,22.856 62.912,22.856 L62.912,22.856 L61.6,22.856 C61.76,24.168 62.064,25.48 62.48,26.792 C62.912,28.104 63.408,29.384 63.984,30.648 C64.048,30.76 64.096,30.856 64.16,30.92 C64.224,30.984 64.32,31 64.464,31 L64.464,31 L65.84,31 Z M73.136,31.176 C73.712,31.176 74.224,31.128 74.672,31.048 C75.12,30.952 75.456,30.872 75.712,30.776 L75.712,30.776 L75.712,30.104 C75.712,29.864 75.6,29.752 75.344,29.752 C75.216,29.752 74.992,29.768 74.64,29.816 C74.304,29.848 73.92,29.88 73.504,29.88 C73.04,29.88 72.656,29.832 72.352,29.752 C72.064,29.656 71.824,29.528 71.632,29.336 C71.456,29.144 71.344,28.904 71.264,28.616 C71.2,28.312 71.152,27.944 71.12,27.528 L71.12,27.528 L75.792,27.528 C75.856,27.368 75.888,27.16 75.92,26.872 C75.952,26.584 75.968,26.28 75.968,25.976 C75.968,25.512 75.936,25.08 75.84,24.68 C75.76,24.264 75.6,23.928 75.376,23.64 C75.152,23.336 74.848,23.096 74.448,22.92 C74.064,22.728 73.552,22.664 72.928,22.664 C72.384,22.664 71.888,22.744 71.472,22.904 C71.056,23.064 70.704,23.304 70.416,23.656 C70.128,24.008 69.936,24.44 69.792,24.984 C69.664,25.528 69.584,26.184 69.584,26.952 C69.584,27.72 69.664,28.376 69.792,28.92 C69.936,29.464 70.16,29.88 70.448,30.232 C70.752,30.568 71.104,30.792 71.552,30.952 C72,31.096 72.528,31.176 73.136,31.176 Z M74.496,26.392 L71.12,26.392 C71.136,26.008 71.168,25.656 71.232,25.336 C71.296,25.016 71.392,24.76 71.52,24.552 C71.664,24.328 71.856,24.168 72.08,24.056 C72.32,23.928 72.624,23.88 72.976,23.88 C73.584,23.88 74,24.056 74.208,24.408 C74.432,24.76 74.512,25.256 74.512,25.944 L74.512,25.944 L74.512,26.152 C74.512,26.2 74.512,26.28 74.496,26.392 L74.496,26.392 Z M84.848,31.176 C85.424,31.176 85.92,31.128 86.352,31.032 C86.8,30.936 87.152,30.84 87.456,30.728 L87.456,30.728 L87.456,29.944 C87.456,29.688 87.328,29.56 87.056,29.56 C86.896,29.56 86.64,29.576 86.304,29.64 C85.984,29.688 85.584,29.72 85.136,29.72 C84.704,29.72 84.32,29.656 84,29.544 C83.68,29.416 83.424,29.208 83.2,28.888 C82.992,28.568 82.848,28.136 82.736,27.576 C82.64,27 82.576,26.28 82.576,25.384 C82.576,24.568 82.624,23.896 82.704,23.352 C82.8,22.808 82.944,22.392 83.136,22.072 C83.344,21.752 83.616,21.512 83.936,21.384 C84.272,21.24 84.672,21.192 85.152,21.192 C85.568,21.192 85.952,21.208 86.336,21.256 C86.72,21.288 87.056,21.32 87.36,21.368 L87.36,21.368 L87.36,20.616 C87.36,20.472 87.344,20.36 87.28,20.28 C87.232,20.184 87.152,20.12 87.024,20.072 C86.8,19.976 86.496,19.896 86.08,19.832 C85.68,19.768 85.312,19.752 84.928,19.752 C84.192,19.752 83.568,19.848 83.056,20.072 C82.544,20.28 82.128,20.6 81.792,21.064 C81.472,21.512 81.248,22.104 81.088,22.84 C80.944,23.56 80.864,24.44 80.864,25.464 C80.864,26.472 80.944,27.336 81.088,28.072 C81.248,28.792 81.488,29.368 81.808,29.848 C82.144,30.312 82.544,30.632 83.04,30.856 C83.552,31.064 84.144,31.176 84.848,31.176 Z M90.608,31 L90.608,24.84 C90.8,24.648 91.04,24.472 91.344,24.296 C91.664,24.104 92.032,24.04 92.464,24.04 C92.912,24.04 93.264,24.152 93.488,24.408 C93.728,24.648 93.84,25.032 93.84,25.592 L93.84,25.592 L93.84,30.632 C93.84,30.744 93.888,30.84 93.952,30.904 C94.032,30.968 94.112,31 94.224,31 L94.224,31 L95.456,31 L95.456,25.464 C95.456,24.6 95.28,23.928 94.896,23.432 C94.528,22.92 93.92,22.68 93.056,22.68 C92.576,22.68 92.128,22.76 91.696,22.936 C91.28,23.096 90.928,23.336 90.608,23.672 L90.608,23.672 L90.608,19.88 C90.608,19.752 90.576,19.672 90.496,19.608 C90.432,19.544 90.352,19.512 90.224,19.512 L90.224,19.512 L88.992,19.512 L88.992,30.632 C88.992,30.872 89.12,31 89.376,31 L89.376,31 L90.608,31 Z M99.52,31.144 C100.096,31.144 100.576,31.032 100.96,30.824 C101.36,30.6 101.68,30.376 101.952,30.12 L101.952,30.12 L102.016,30.6 C102.048,30.696 102.08,30.792 102.112,30.888 C102.16,30.968 102.272,31 102.448,31 L102.448,31 L103.424,31 L103.424,25.512 C103.424,25.08 103.376,24.696 103.264,24.344 C103.168,23.992 103.008,23.688 102.752,23.448 C102.512,23.192 102.192,23 101.776,22.872 C101.376,22.728 100.864,22.68 100.256,22.68 C99.776,22.68 99.296,22.712 98.816,22.792 C98.352,22.856 97.936,22.952 97.552,23.08 L97.552,23.08 L97.552,23.768 C97.552,23.864 97.584,23.96 97.648,24.04 C97.712,24.104 97.808,24.136 97.936,24.136 C98.064,24.136 98.304,24.104 98.672,24.056 C99.056,23.992 99.472,23.992 99.936,23.992 C100.64,23.992 101.12,24.088 101.408,24.296 C101.696,24.488 101.84,24.872 101.84,25.432 L101.84,25.432 L101.84,25.976 L100.192,25.976 C99.744,25.976 99.328,26.008 98.944,26.104 C98.56,26.184 98.224,26.312 97.936,26.52 C97.648,26.712 97.44,26.968 97.28,27.304 C97.12,27.624 97.056,28.04 97.056,28.552 C97.056,29.352 97.264,29.992 97.664,30.456 C98.08,30.904 98.688,31.144 99.52,31.144 Z M99.936,29.912 C99.456,29.912 99.104,29.8 98.864,29.576 C98.64,29.352 98.512,28.984 98.512,28.504 C98.512,28.296 98.544,28.104 98.592,27.944 C98.656,27.768 98.72,27.624 98.848,27.496 C98.976,27.368 99.136,27.272 99.344,27.208 C99.568,27.128 99.824,27.112 100.144,27.112 L100.144,27.112 L101.84,27.112 L101.84,29.096 C101.616,29.304 101.36,29.496 101.04,29.672 C100.736,29.832 100.368,29.912 99.936,29.912 Z M108,31.144 C108.24,31.144 108.464,31.128 108.688,31.096 C108.912,31.064 109.136,31.016 109.376,30.952 L109.376,30.952 L109.376,30.2 C109.376,29.944 109.232,29.832 108.944,29.832 C108.848,29.832 108.72,29.832 108.592,29.848 L108.592,29.848 L108.144,29.848 C107.856,29.848 107.664,29.768 107.568,29.608 C107.472,29.448 107.424,29.224 107.424,28.936 L107.424,28.936 L107.424,24.136 L109.376,24.136 L109.376,23.224 C109.376,23.096 109.344,23.016 109.264,22.952 C109.2,22.888 109.12,22.856 108.992,22.856 L108.992,22.856 L107.424,22.856 L107.424,21.112 C107.424,20.856 107.296,20.744 107.04,20.744 L107.04,20.744 L105.92,20.744 L105.84,22.856 L104.864,22.856 L104.864,23.768 C104.864,24.008 104.992,24.136 105.248,24.136 L105.248,24.136 L105.808,24.136 L105.808,29.016 C105.808,29.752 105.984,30.28 106.336,30.632 C106.688,30.968 107.232,31.144 108,31.144 Z" id="LiveChat" fill="#FFFFFF"></path>
            </g>
        </g>
    </g>
</svg>